<svg xmlns="http://www.w3.org/2000/svg" xmlns:xlink="http://www.w3.org/1999/xlink" width="800" height="450">
  <defs>
    <linearGradient id="a">
      <stop offset="0" style="stop-color:#c2c2c2;stop-opacity:1"/>
      <stop offset="1" style="stop-color:#9f9f9f;stop-opacity:1"/>
    </linearGradient>
    <linearGradient xlink:href="#a" id="b" x1="660.07" x2="658.46" y1="6.6" y2="108.78" gradientTransform="translate(-45.25 .35)" gradientUnits="userSpaceOnUse"/>
  </defs>
  <g transform="translate(-399.13 -122.8)">
    <rect width="800" height="450" x="399.13" y="122.79" ry="7.77" style="fill:#eee;fill-opacity:1;fill-rule:nonzero;stroke:none;stroke-width:2.6126;stroke-linecap:round;stroke-linejoin:round;stroke-miterlimit:4;stroke-dasharray:none;stroke-opacity:1"/>
    <g transform="matrix(1.8 0 0 1.8 -263.7 220.87)">
      <rect width="82.49" height="90.47" x="398.76" y="178.75" ry="8.4" style="fill:#9f9f9f;fill-opacity:1;fill-rule:nonzero;stroke:none;stroke-width:2.2995;stroke-linecap:round;stroke-linejoin:round;stroke-miterlimit:4;stroke-dasharray:none;stroke-opacity:1" transform="rotate(-16)"/>
      <g transform="rotate(16 538.14 -184.9)">
        <rect width="107.83" height="115.97" x="547.19" y="1.65" ry="4.6" style="fill:url(#b);fill-opacity:1;fill-rule:nonzero;stroke:#fff;stroke-width:5.398;stroke-linecap:round;stroke-linejoin:round;stroke-miterlimit:4;stroke-dasharray:none"/>
        <g style="stroke:#fff;stroke-width:13.0708;stroke-miterlimit:4;stroke-dasharray:none;stroke-opacity:1">
          <path d="M270 107.36h491.11v450H270z" style="color:#000;clip-rule:nonzero;display:inline;overflow:visible;visibility:visible;opacity:1;isolation:auto;mix-blend-mode:normal;color-interpolation:sRGB;color-interpolation-filters:linearRGB;solid-color:#000;solid-opacity:1;fill:#ccc;fill-opacity:1;fill-rule:evenodd;stroke:#fff;stroke-width:13.0708;stroke-linecap:round;stroke-linejoin:round;stroke-miterlimit:4;stroke-dasharray:none;stroke-dashoffset:0;stroke-opacity:1;marker:none;color-rendering:auto;image-rendering:auto;shape-rendering:auto;text-rendering:auto;enable-background:accumulate" transform="matrix(.2 0 0 .2 512.5 -6.33)"/>
          <path d="M270 107.36h491.11v210H270z" style="color:#000;clip-rule:nonzero;display:inline;overflow:visible;visibility:visible;opacity:1;isolation:auto;mix-blend-mode:normal;color-interpolation:sRGB;color-interpolation-filters:linearRGB;solid-color:#000;solid-opacity:1;fill:#fff;fill-opacity:1;fill-rule:evenodd;stroke:#fff;stroke-width:13.0708;stroke-linecap:round;stroke-linejoin:round;stroke-miterlimit:4;stroke-dasharray:none;stroke-dashoffset:0;stroke-opacity:1;marker:none;color-rendering:auto;image-rendering:auto;shape-rendering:auto;text-rendering:auto;enable-background:accumulate" transform="matrix(.2 0 0 .2 512.5 -6.33)"/>
          <path d="m300 317.36 38.46-53.54L399 218.66l15.89 18.58 13.6-38.69 8.2-2.98 13.32-28.2 180 180" style="color:#000;clip-rule:nonzero;display:inline;overflow:visible;visibility:visible;opacity:1;isolation:auto;mix-blend-mode:normal;color-interpolation:sRGB;color-interpolation-filters:linearRGB;solid-color:#000;solid-opacity:1;fill:#ccc;fill-opacity:1;fill-rule:evenodd;stroke:#fff;stroke-width:13.0708;stroke-linecap:round;stroke-linejoin:round;stroke-miterlimit:4;stroke-dasharray:none;stroke-dashoffset:0;stroke-opacity:1;marker:none;paint-order:stroke;color-rendering:auto;image-rendering:auto;shape-rendering:auto;text-rendering:auto;enable-background:accumulate" transform="matrix(.2 0 0 .2 512.5 -6.33)"/>
          <path d="M180 60a885.56 885.56 0 0 1 17.17 87.88l-22.07-7.16L129 111.3l5.32 46.43-1.62 24.78 10.05 30.38 73.19-11.76L300 180l-47.8-77.43-9.7 14.93-27.13-22.13Z" style="color:#000;clip-rule:nonzero;display:inline;overflow:visible;visibility:visible;opacity:1;isolation:auto;mix-blend-mode:normal;color-interpolation:sRGB;color-interpolation-filters:linearRGB;solid-color:#000;solid-opacity:1;fill:#b3b3b3;fill-opacity:1;fill-rule:evenodd;stroke:#fff;stroke-width:13.0708;stroke-linecap:round;stroke-linejoin:round;stroke-miterlimit:4;stroke-dasharray:none;stroke-dashoffset:0;stroke-opacity:1;marker:none;paint-order:stroke;color-rendering:auto;image-rendering:auto;shape-rendering:auto;text-rendering:auto;enable-background:accumulate" transform="matrix(.2 0 0 .2 559.11 12.2)"/>
          <path d="m420 347.36 81.9-74.43 18.5-9.68 23.66-44.19 25.94-21.7 180 180" style="color:#000;clip-rule:nonzero;display:inline;overflow:visible;visibility:visible;opacity:1;isolation:auto;mix-blend-mode:normal;color-interpolation:sRGB;color-interpolation-filters:linearRGB;solid-color:#000;solid-opacity:1;fill:#ccc;fill-opacity:1;fill-rule:evenodd;stroke:#fff;stroke-width:13.0708;stroke-linecap:round;stroke-linejoin:round;stroke-miterlimit:4;stroke-dasharray:none;stroke-dashoffset:0;stroke-opacity:1;marker:none;paint-order:stroke;color-rendering:auto;image-rendering:auto;shape-rendering:auto;text-rendering:auto;enable-background:accumulate" transform="matrix(.2 0 0 .2 512.5 -6.33)"/>
          <path d="m570 197.36 35.94 80.92v60.22l22.46 19.46a81.56 81.56 0 0 1 22.44-15.7c14.83-7 31.34-9.36 47.17-13.62 6.43-1.73 12.9-3.86 18.22-7.88a29.83 29.83 0 0 0 3.77-3.4h-30l-40.52-40.55-29.86-48.92-10.25 8.84z" style="color:#000;clip-rule:nonzero;display:inline;overflow:visible;visibility:visible;opacity:1;isolation:auto;mix-blend-mode:normal;color-interpolation:sRGB;color-interpolation-filters:linearRGB;solid-color:#000;solid-opacity:1;fill:#b3b3b3;fill-opacity:1;fill-rule:evenodd;stroke:#fff;stroke-width:13.0708;stroke-linecap:round;stroke-linejoin:round;stroke-miterlimit:4;stroke-dasharray:none;stroke-dashoffset:0;stroke-opacity:1;marker:none;paint-order:stroke;color-rendering:auto;image-rendering:auto;shape-rendering:auto;text-rendering:auto;enable-background:accumulate" transform="matrix(.2 0 0 .2 512.5 -6.33)"/>
          <path d="M420 557.36c-.42-9.6-8.82-17.6 17.13-30.67 31.83-16.02 125.89-35.88 152.15-59.98 19.43-17.83-70.42-37.67-55.02-59.07 6.98-9.7 59.04-19.97 82.15-30.28 21.9-9.77 15.14-19.8 31.4-29.97 15.71-9.83 68.35-19.78 72.19-30.03-10.41 10.52-68.83 20.4-90 30-22.34 10.13-21.47 19.93-49.43 29.49-30.13 10.29-89.14 20.55-102.7 30.51-28.42 20.87 46.85 42.6 16.2 60-41.53 23.57-149.35 43.3-194.07 60-30.9 11.55-28.4 17.75-30 30" style="color:#000;clip-rule:nonzero;display:inline;overflow:visible;visibility:visible;opacity:1;isolation:auto;mix-blend-mode:normal;color-interpolation:sRGB;color-interpolation-filters:linearRGB;solid-color:#000;solid-opacity:1;fill:#fff;fill-opacity:1;fill-rule:evenodd;stroke:#fff;stroke-width:13.0708;stroke-linecap:round;stroke-linejoin:round;stroke-miterlimit:4;stroke-dasharray:none;stroke-dashoffset:0;stroke-opacity:1;marker:none;paint-order:stroke;color-rendering:auto;image-rendering:auto;shape-rendering:auto;text-rendering:auto;enable-background:accumulate" transform="matrix(.2 0 0 .2 512.5 -6.33)"/>
        </g>
      </g>
    </g>
    <text xml:space="preserve" x="918.39" y="339.67" style="font-style:normal;font-weight:400;font-size:32px;line-height:1.25;font-family:sans-serif;fill:#767676;fill-opacity:1;stroke:none" transform="translate(50.74)"><tspan x="918.39" y="339.67" style="font-style:normal;font-variant:normal;font-weight:700;font-stretch:normal;font-size:32px;font-family:sans-serif;-inkscape-font-specification:&quot;sans-serif Bold&quot;;text-align:center;text-anchor:middle">NO IMAGE</tspan><tspan x="918.39" y="379.67" style="font-style:normal;font-variant:normal;font-weight:700;font-stretch:normal;font-size:32px;font-family:sans-serif;-inkscape-font-specification:&quot;sans-serif Bold&quot;;text-align:center;text-anchor:middle">AVAILABLE</tspan></text>
  </g>
</svg>
